PathFileType	4	(X/Y/Z)	Patient4_TMGait_0pt8_01_left_05.trc.trc
DataRate	CameraRate	NumFrames	NumMarkers	Units	OrigDataRate	OrigDataStartFrame	OrigNumFrames
88.050314465409	88.050314465409	4	33	mm	88.050314465409	106	       141
Frame#	Time	Sacral			L.Shoulder			Chest			R.Shoulder			Neck			R.ASIS			L.ASIS			R.Thigh.Superior			R.Thigh.Lateral			R.Thigh.Inferior			R.Patella			L.Thigh.Superior			L.Thigh.Lateral			L.Thigh.Inferior			L.Patella			L.Shank.Superior			L.Shank.Lateral			L.Shank.Inferior			R.Shank.Superior			R.Shank.Lateral			R.Shank.Inferior			R.Heel			R.Midfoot.Superior			R.Midfoot.Lateral			R.Toe			L.Heel			L.Midfoot.Lateral			L.Midfoot.Superior			L.Toe			L.Elbow			L.Wrist			R.Elbow			R.Wrist			
		X1	Y1	Z1	X2	Y2	Z2	X3	Y3	Z3	X4	Y4	Z4	X5	Y5	Z5	X6	Y6	Z6	X7	Y7	Z7	X8	Y8	Z8	X9	Y9	Z9	X10	Y10	Z10	X11	Y11	Z11	X12	Y12	Z12	X13	Y13	Z13	X14	Y14	Z14	X15	Y15	Z15	X16	Y16	Z16	X17	Y17	Z17	X18	Y18	Z18	X19	Y19	Z19	X20	Y20	Z20	X21	Y21	Z21	X22	Y22	Z22	X23	Y23	Z23	X24	Y24	Z24	X25	Y25	Z25	X26	Y26	Z26	X27	Y27	Z27	X28	Y28	Z28	X29	Y29	Z29	X30	Y30	Z30	X31	Y31	Z31	X32	Y32	Z32	X33	Y33	Z33	

106	5.922500000000	832.896440350882	1009.664683649654	536.011229118879	982.917831432126	1432.425971756748	329.756038840738	1103.054207212240	1370.134805019940	481.916877517875	1036.326639034288	1443.938271874069	663.236019905486	984.860563127125	1498.254115977938	485.697960000344	1068.812400749036	946.318540921299	631.493901752844	1030.537728595082	964.302036537542	359.608854049189	1092.173750653221	738.537758441480	601.224561267375	1004.007673335389	634.543223497686	664.457828706402	1070.696072918370	577.438584583012	580.613432304796	1062.656978356304	490.852154258073	584.656551938266	1124.098572967901	793.780088132055	392.109709622120	1085.690996653949	662.457766041490	315.667514017431	1195.492455337262	607.238894879447	372.582109770642	1215.594095209518	520.851289174839	365.108290380731	1160.567047103360	447.084951625113	358.790629668267	1028.023299332576	377.969242648768	317.018753651657	1047.112848974240	247.670606502317	367.811902761393	1033.345358034507	403.613612409137	591.604561281216	960.800715573092	301.128377471846	652.632337339292	998.204540003111	206.154077251936	586.487438689578	858.812886246566	43.686942782169	555.512287042899	1030.638647358538	97.702674963759	592.381710868100	941.779758731829	37.354090800259	630.786724171421	1150.148813387560	42.856460525378	620.591675156753	878.660718818659	142.351167611059	416.308153459981	938.110351267098	112.505894064707	330.118417168239	1040.560698692131	142.466645888395	345.327079346781	1137.635818167910	50.906963073411	306.455753217282	966.082391360315	1070.574645630888	239.947076827469	1070.221332728219	830.980515179120	240.146343816971	1079.109780960171	1098.248752804195	789.943463634597	1270.719108854014	921.809903697686	783.445857630276	
107	5.933857142857	831.853054584109	1009.893781305595	536.842146232851	982.096711346977	1431.869708585599	330.115186909614	1102.769649986122	1369.711445176045	481.859619742664	1037.054261445652	1444.061915428151	663.349530781136	984.819520929639	1498.012079417608	485.923137901317	1067.932937605071	945.736209031456	631.629961121363	1028.546656490110	964.161553605771	359.883929959482	1088.668055282108	737.435098384006	600.776250022619	999.576830576480	634.254410972794	664.730575183181	1064.988017034215	576.368039296065	580.604914844900	1055.908480989130	490.085352299322	584.706564301075	1123.166400375675	795.432665765026	392.219193003607	1085.993751312851	663.655692750831	315.640291924086	1195.914922913122	609.458912896797	372.713566474842	1217.682694209560	524.755829350197	365.108723376212	1166.732379537231	449.733045574142	358.383575120619	1039.262297755559	372.252711564988	316.157045648633	1067.154042105437	243.049523552090	366.470808677970	1026.148587850063	403.025592833809	591.630813325528	953.063375812039	300.935950325750	652.704626455662	989.779452571579	205.803291216075	586.478909784143	849.652796882043	43.630794379082	555.568746709879	1021.372682040194	97.533189912921	592.206208257409	932.620866181064	37.299418549752	630.800426912129	1140.955055805773	42.832671922477	620.650977406555	906.358156790867	126.649325731475	414.799899688586	967.462995546256	100.938597973391	328.507601297857	1067.808711367356	137.403015734848	343.651606338789	1170.615223777929	52.390831048763	304.588778727409	958.758206230963	1069.966331755526	241.701540948938	1046.466267860546	824.057543005391	241.033744266813	1091.622501602994	1100.718284351546	790.420487798076	1293.904763220694	937.261498129211	779.410374970358	
108	5.945214285714	830.896047116075	1009.961888261036	537.492795212493	981.517687481381	1431.220262418675	330.380084523894	1102.604873525764	1369.112449771275	481.773900505991	1037.793974240919	1444.021673264754	663.388132917388	984.886880295776	1497.619995597471	486.078034812488	1067.079265073326	945.040740610688	631.707220534665	1026.884265736986	963.828281918442	360.005306038695	1085.244362936934	736.255141542181	600.389682048868	995.198186208185	633.871950634121	664.957571641164	1059.395618799802	575.236806223809	580.615164553523	1049.281808882352	489.255655246297	584.769584258545	1121.935651116986	796.338115572684	392.268921351096	1085.710278258534	664.272540776225	315.495772842189	1195.433929329772	610.759397338742	373.041678140841	1218.761345796064	528.001427090718	365.297569618266	1172.026635670018	452.078445900769	358.088124686415	1050.533188630563	366.408176978563	314.955493868450	1087.112300798501	238.948242244209	365.044547711365	1019.040764520987	402.387326351519	591.652537301356	945.374212786014	300.698995790250	652.742804651695	981.366584656424	205.414748563284	586.459560525192	840.493014211584	43.564353213334	555.626467331264	1012.098490832665	97.354424552514	592.018982230171	923.454101659103	37.237779747946	630.805771901398	1131.757818410612	42.810222674530	620.704115360250	934.739068630908	111.931331833166	412.715930077511	997.572377049718	90.350553595106	326.638405222294	1095.288553927185	133.191906899424	342.023551155016	1203.497730238943	55.024075620259	303.376962597116	951.158182325372	1069.592842144586	242.978506598751	1023.059845307037	818.842478154120	242.022381009108	1103.714164410106	1103.436914560935	790.633612393898	1315.792669575425	953.784412136737	774.913876022026	
109	5.956571428571	830.061075360548	1009.864038936302	537.970006950594	981.166229518672	1430.495474810643	330.547670564918	1102.556564143063	1368.348374481173	481.646748966516	1038.546831112767	1443.817420880358	663.344239393712	985.058501158079	1497.088997447360	486.160184480011	1066.279887507692	944.248441841284	631.729547996492	1025.555187867343	963.313860041354	359.986006739587	1081.930624170563	734.999806336616	600.088806680851	990.877932446923	633.405737989857	665.139308959595	1053.928550151986	574.051781565487	580.649476088262	1042.778703943026	488.366563000243	584.836923092715	1120.432025526018	796.490469901599	392.276116486307	1084.894553347707	664.337314369328	315.181547266573	1194.121871052396	611.164825220464	373.530238816910	1218.918666311812	530.596807936027	365.653832667804	1176.482796003786	454.142910514351	357.906092913462	1061.810663487515	360.619740797937	313.420193952556	1106.783157517936	235.549110052469	363.606923589892	1012.019137432102	401.706902874026	591.666608374733	937.738083958203	300.427123690033	652.753232482929	972.970458169295	204.996410271370	586.429254893116	831.331516120335	43.491870565495	555.683553522444	1002.825160422061	97.174860252181	591.835831646300	914.278292458628	37.171842441814	630.803681039582	1122.562108370694	42.784971690482	620.752610870431	963.442339840740	98.546745093935	410.129839740037	1028.125300123370	81.031828991220	324.616909713937	1122.715045827481	130.041400785297	340.544170112119	1235.952354640460	58.934770707058	302.998504220946	943.283900757019	1069.505579459570	243.792754739639	1000.261169484391	815.229076075599	243.119791380547	1115.351791596971	1106.351072917699	790.574326894066	1336.252050847609	971.224730905595	770.026285704585	
